<svg width="61" height="60" viewBox="0 0 61 60" fill="none" xmlns="http://www.w3.org/2000/svg">
  <path fill="#68B738" d="M.5 0h60v60H.5z"/>
  <path fill-rule="evenodd" clip-rule="evenodd" d="M37.3 15c.3 0 .8 0 1 .3 1 .9 2.2 2.9 3.1 6 1 3 1.8 7.2 1.8 12.7 0 .6-.5 1-1 1h-3.5v9a1 1 0 0 1-2 0V16c0-.4.2-.8.6-1Zm1.4 18h2.5a39.3 39.3 0 0 0-2.5-13.5V33ZM24.5 15c.6 0 1 .4 1 1v28c0 .6-.4 1-1 1a1 1 0 0 1-1-1V16c0-.6.5-1 1-1Z" fill="#fff"/>
  <path fill-rule="evenodd" clip-rule="evenodd" d="M20 15c.6 0 1 .4 1 1v5.5c0 .6.2 1.3.7 2 .5.5 1.4 1 2.8 1 .6 0 1 .4 1 1s-.4 1-1 1c-2 0-3.4-.7-4.3-1.8a5 5 0 0 1-1.2-3.2V16c0-.6.5-1 1-1Z" fill="#fff"/>
  <path fill-rule="evenodd" clip-rule="evenodd" d="M29 15a1 1 0 0 0-1 1v5.5a3 3 0 0 1-.6 2c-.5.5-1.4 1-2.9 1a1 1 0 0 0-1 1c0 .6.5 1 1 1 2 0 3.5-.7 4.4-1.8a5 5 0 0 0 1.2-3.2V16c0-.6-.5-1-1-1Z" fill="#fff"/>
</svg>
